<svg width="32" height="24" viewBox="0 0 32 24" xmlns="http://www.w3.org/2000/svg">
  <!-- 机身 -->
  <ellipse cx="16" cy="12" rx="14" ry="3" fill="#34495E" stroke="#2C3E50" stroke-width="1"/>
  
  <!-- 机头 -->
  <ellipse cx="4" cy="12" rx="3" ry="2" fill="#5D6D7E" stroke="#2C3E50" stroke-width="1"/>
  
  <!-- 机尾 -->
  <polygon points="30,12 28,9 28,15" fill="#5D6D7E" stroke="#2C3E50" stroke-width="1"/>
  
  <!-- 主翼 -->
  <ellipse cx="16" cy="12" rx="12" ry="8" fill="#7F8C8D" stroke="#5D6D7E" stroke-width="1" opacity="0.8"/>
  
  <!-- 发动机 -->
  <ellipse cx="10" cy="8" rx="3" ry="2" fill="#95A5A6" stroke="#7F8C8D" stroke-width="1"/>
  <ellipse cx="22" cy="8" rx="3" ry="2" fill="#95A5A6" stroke="#7F8C8D" stroke-width="1"/>
  <ellipse cx="10" cy="16" rx="3" ry="2" fill="#95A5A6" stroke="#7F8C8D" stroke-width="1"/>
  <ellipse cx="22" cy="16" rx="3" ry="2" fill="#95A5A6" stroke="#7F8C8D" stroke-width="1"/>
  
  <!-- 驾驶舱 -->
  <rect x="6" y="10" width="6" height="4" fill="#AEB6BF" stroke="#85929E" stroke-width="1"/>
  
  <!-- 武器挂载点 -->
  <rect x="12" y="14" width="2" height="3" fill="#E74C3C" stroke="#C0392B" stroke-width="1"/>
  <rect x="18" y="14" width="2" height="3" fill="#E74C3C" stroke="#C0392B" stroke-width="1"/>
  
  <!-- 导航灯 -->
  <circle cx="6" cy="6" r="1" fill="#2ECC71"/>
  <circle cx="26" cy="6" r="1" fill="#E74C3C"/>
  
  <!-- 推进器尾焰 -->
  <ellipse cx="29" cy="8" rx="2" ry="1" fill="#FF6B35" opacity="0.6"/>
  <ellipse cx="29" cy="16" rx="2" ry="1" fill="#FF6B35" opacity="0.6"/>
</svg>